<svg xmlns="http://www.w3.org/2000/svg" width="639.391" height="193.833" viewBox="0 0 639.391 193.833">
  <g id="logo_txt" transform="translate(-307.125 -69.774)">
    <g id="logo" transform="translate(307.125 69.774)">
      <path id="Path_1" data-name="Path 1" d="M472.343,446.621a33.734,33.734,0,0,0,33.714-33.714V349.893H495.516v63.014a23.177,23.177,0,1,1-46.354,0V349.893H438.621v63.014a33.758,33.758,0,0,0,33.722,33.714" transform="translate(0.022 -349.788)" fill="#b59059"/>
      <path id="Path_2" data-name="Path 2" d="M464.757,443.7h11.257l-36.451-93.816H428.9L392.381,443.7h11.3l30.549-78.517Z" transform="translate(-278.247 -349.872)" fill="#b59059"/>
      <path id="Path_3" data-name="Path 3" d="M514.067,359.042A1.957,1.957,0,0,1,512.116,361h-53.75a1.963,1.963,0,0,1-1.958-1.958v-6.618a1.954,1.954,0,0,1,1.958-1.958h53.75a1.948,1.948,0,0,1,1.951,1.958Z" transform="translate(107.063 -346.339)" fill="#b59059"/>
      <path id="Path_4" data-name="Path 4" d="M532.328,369.788a1.957,1.957,0,0,1-1.958,1.951h-72a1.962,1.962,0,0,1-1.958-1.951v-6.632a1.963,1.963,0,0,1,1.958-1.958h72a1.959,1.959,0,0,1,1.958,1.958Z" transform="translate(107.063 -281.755)" fill="#b59059"/>
      <path id="Path_5" data-name="Path 5" d="M500.713,364.346a1.956,1.956,0,0,1-1.951,1.951H456.633a1.957,1.957,0,0,1-1.958-1.951v-6.632a1.959,1.959,0,0,1,1.958-1.958h42.129a1.957,1.957,0,0,1,1.951,1.958Z" transform="translate(96.634 -314.505)" fill="#b59059"/>
      <path id="Path_6" data-name="Path 6" d="M475.872,364.346a1.956,1.956,0,0,1-1.951,1.951h-9.215a1.956,1.956,0,0,1-1.951-1.951v-6.632a1.957,1.957,0,0,1,1.951-1.958h9.215a1.957,1.957,0,0,1,1.951,1.958Z" transform="translate(145.259 -314.505)" fill="#b59059"/>
      <path id="Path_7" data-name="Path 7" d="M386.645,433.161V349.879H376.119v91.177a2.55,2.55,0,0,0,2.8,2.639h60.4V433.161Z" transform="translate(-376.118 -349.872)" fill="#b59059"/>
      <path id="Path_8" data-name="Path 8" d="M465.39,406.463a28.524,28.524,0,0,0-5.116-56.585H423.367a2.222,2.222,0,0,0-2.33,2.414v90.63h10.541v-82.5h28.7a17.983,17.983,0,0,1,0,35.967H443.15l30.739,46.536h12.625l-23.763-36Z" transform="translate(-105.797 -349.878)" fill="#b59059"/>
    </g>
    <g id="logo-2" data-name="logo" transform="translate(307.125 166.774)">
      <path id="Path_1-2" data-name="Path 1" d="M472.343,446.621a33.734,33.734,0,0,0,33.714-33.714V349.893H495.516v63.014a23.177,23.177,0,1,1-46.354,0V349.893H438.621v63.014a33.758,33.758,0,0,0,33.722,33.714" transform="translate(0.022 -349.788)" fill="#fff"/>
      <path id="Path_2-2" data-name="Path 2" d="M464.757,443.7h11.257l-36.451-93.816H428.9L392.381,443.7h11.3l30.549-78.517Z" transform="translate(-278.247 -349.872)" fill="#fff"/>
      <path id="Path_3-2" data-name="Path 3" d="M514.067,359.042A1.957,1.957,0,0,1,512.116,361h-53.75a1.963,1.963,0,0,1-1.958-1.958v-6.618a1.954,1.954,0,0,1,1.958-1.958h53.75a1.948,1.948,0,0,1,1.951,1.958Z" transform="translate(107.063 -346.339)" fill="#fff"/>
      <path id="Path_4-2" data-name="Path 4" d="M532.328,369.788a1.957,1.957,0,0,1-1.958,1.951h-72a1.962,1.962,0,0,1-1.958-1.951v-6.632a1.963,1.963,0,0,1,1.958-1.958h72a1.959,1.959,0,0,1,1.958,1.958Z" transform="translate(107.063 -281.755)" fill="#fff"/>
      <path id="Path_5-2" data-name="Path 5" d="M500.713,364.346a1.956,1.956,0,0,1-1.951,1.951H456.633a1.957,1.957,0,0,1-1.958-1.951v-6.632a1.959,1.959,0,0,1,1.958-1.958h42.129a1.957,1.957,0,0,1,1.951,1.958Z" transform="translate(96.634 -314.505)" fill="#fff"/>
      <path id="Path_6-2" data-name="Path 6" d="M475.872,364.346a1.956,1.956,0,0,1-1.951,1.951h-9.215a1.956,1.956,0,0,1-1.951-1.951v-6.632a1.957,1.957,0,0,1,1.951-1.958h9.215a1.957,1.957,0,0,1,1.951,1.958Z" transform="translate(145.259 -314.505)" fill="#fff"/>
      <path id="Path_7-2" data-name="Path 7" d="M386.645,433.161V349.879H376.119v91.177a2.55,2.55,0,0,0,2.8,2.639h60.4V433.161Z" transform="translate(-376.118 -349.872)" fill="#fff"/>
      <path id="Path_8-2" data-name="Path 8" d="M465.39,406.463a28.524,28.524,0,0,0-5.116-56.585H423.367a2.222,2.222,0,0,0-2.33,2.414v90.63h10.541v-82.5h28.7a17.983,17.983,0,0,1,0,35.967H443.15l30.739,46.536h12.625l-23.763-36Z" transform="translate(-105.797 -349.878)" fill="#fff"/>
    </g>
  </g>
</svg>
