<svg xmlns="http://www.w3.org/2000/svg" width="215.001" height="307.752" viewBox="0 0 215.001 307.752">
  <g id="logo" transform="translate(-375.292 -230.9)">
    <path id="Path_1" data-name="Path 1" d="M449.758,381.84A11.141,11.141,0,0,0,460.893,370.7V349.893h-3.481V370.7a7.655,7.655,0,1,1-15.309,0V349.893h-3.481V370.7a11.149,11.149,0,0,0,11.137,11.135" transform="translate(83.457 156.813)" fill="#b59059"/>
    <path id="Path_2" data-name="Path 2" d="M416.285,380.864H420l-12.039-30.985h-3.523l-12.06,30.985h3.732l10.09-25.932Z" transform="translate(22.52 156.794)" fill="#b59059"/>
    <path id="Path_3" data-name="Path 3" d="M475.451,353.3a.646.646,0,0,1-.644.647H457.055a.648.648,0,0,1-.647-.647v-2.186a.645.645,0,0,1,.647-.647h17.752a.643.643,0,0,1,.644.647Z" transform="translate(106.897 157.568)" fill="#b59059"/>
    <path id="Path_4" data-name="Path 4" d="M481.482,364.035a.646.646,0,0,1-.647.644H457.055a.648.648,0,0,1-.647-.644v-2.19a.648.648,0,0,1,.647-.647h23.781a.647.647,0,0,1,.647.647Z" transform="translate(106.897 171.711)" fill="#b59059"/>
    <path id="Path_5" data-name="Path 5" d="M469.88,358.593a.646.646,0,0,1-.644.644H455.322a.646.646,0,0,1-.647-.644V356.4a.647.647,0,0,1,.647-.647h13.914a.646.646,0,0,1,.644.647Z" transform="translate(104.614 164.539)" fill="#b59059"/>
    <path id="Path_6" data-name="Path 6" d="M467.087,358.593a.646.646,0,0,1-.644.644H463.4a.646.646,0,0,1-.645-.644V356.4a.646.646,0,0,1,.645-.647h3.043a.646.646,0,0,1,.644.647Z" transform="translate(115.262 164.539)" fill="#b59059"/>
    <path id="Path_7" data-name="Path 7" d="M379.595,377.385V349.879h-3.477v30.113a.842.842,0,0,0,.925.871h19.95v-3.479Z" transform="translate(1.088 156.794)" fill="#b59059"/>
    <path id="Path_8" data-name="Path 8" d="M435.686,368.567A9.421,9.421,0,0,0,434,349.878h-12.19a.734.734,0,0,0-.77.8v29.932h3.481V353.359H434a5.939,5.939,0,0,1,0,11.879h-5.656l10.152,15.37h4.17l-7.848-11.888Z" transform="translate(60.284 156.793)" fill="#b59059"/>
    <path id="Path_9" data-name="Path 9" d="M590.276,292.73a.58.58,0,0,0,.014-.088,2.3,2.3,0,0,0-1.117-1.973L485.329,231.257c-1.384-.707-2.065-.292-3.671.633-.014.009-.072.042-.169.1l0,0c-14.7,8.49-104.768,60.528-104.768,60.528a1.315,1.315,0,0,0-.127.076l-.155.09c-.009.009-.009.021-.019.026a2.251,2.251,0,0,0-1.122,1.924V416.016A2.284,2.284,0,0,0,376.428,418l89.422,52.2-.012.014,9.132,5.338v-5.31l-1.119-.647a1.022,1.022,0,0,0-.079-.072l-93.9-54.821-.009-122.727L480.656,233.8l1.481-.95-1.481.953a1.213,1.213,0,0,1,1.062-.116.768.768,0,0,1,.419.7v2.109l0,120.17v121.04A2.289,2.289,0,0,0,484.434,480a2.259,2.259,0,0,0,1.045-.285c.037-.016.072-.012.109-.03l104.166-62.359c.375-.338.538-.552.538-.936,0,0,0-123.659-.016-123.659M483.282,352.343V235.014l100.239,57.628Zm3.44,125.325V359.078l98.87,57.858,1.286.76Zm102.425-63.991-1.349-.765-99.5-58.222,100.849-60.067Z" transform="translate(0 0)" fill="#b59059"/>
  </g>
</svg>
